<svg xmlns="http://www.w3.org/2000/svg" xmlns:ns1="http://sodipodi.sourceforge.net/DTD/sodipodi-0.dtd" width="24" height="24" viewBox="0 0 24 24" fill="none" version="1.1" id="svg3" ns1:docname="bed-flat.svg">
  <path style="baseline-shift:baseline;display:inline;overflow:visible;vector-effect:none;fill:#000000;stroke:none;stroke-linecap:butt;stroke-linejoin:miter;enable-background:accumulate;stop-color:#000000;stop-opacity:1;opacity:1" d="M 5,8 C 4.2777779,8 3.5421194,8.2353472 2.9609375,8.7519531 2.3797556,9.268559 2,10.083334 2,11 2,11.916666 2.3797556,12.731441 2.9609375,13.248047 3.5421194,13.764653 4.2777779,14 5,14 5.7222221,14 6.4578806,13.764653 7.0390625,13.248047 7.6202444,12.731441 8,11.916666 8,11 8,10.083334 7.6202444,9.268559 7.0390625,8.7519531 6.4578806,8.2353472 5.7222221,8 5,8 Z m 0,2 c 0.2777779,0 0.5421194,0.09799 0.7109375,0.248047 C 5.8797556,10.398107 6,10.583334 6,11 6,11.416666 5.8797556,11.601893 5.7109375,11.751953 5.5421194,11.902014 5.2777779,12 5,12 4.7222221,12 4.4578806,11.902014 4.2890625,11.751953 4.1202444,11.601893 4,11.416666 4,11 4,10.583334 4.1202444,10.398107 4.2890625,10.248047 4.4578806,10.097986 4.7222221,10 5,10 Z" id="path1" />
  <path style="baseline-shift:baseline;display:inline;overflow:visible;vector-effect:none;fill:#000000;stroke:none;stroke-linecap:butt;stroke-linejoin:miter;enable-background:accumulate;stop-color:#000000;stop-opacity:1;opacity:1" d="M 10,7 A 1.0001,1.0001 0 0 0 9,8 v 5 a 1.0001,1.0001 0 0 0 1,1 h 11 a 1.0001,1.0001 0 0 0 1,-1 V 11 C 22,8.8027056 20.197294,7 18,7 Z m 1,2 h 7 c 1.116414,0 2,0.8835859 2,2 v 1 h -9 z" id="path2" />
  <path style="baseline-shift:baseline;display:inline;overflow:visible;vector-effect:none;fill:#000000;stroke:none;stroke-linecap:butt;stroke-linejoin:miter;enable-background:accumulate;stop-color:#000000;stop-opacity:1;opacity:1" d="m 3,15 a 1,1 0 0 0 -1,1 1,1 0 0 0 1,1 h 18 a 1,1 0 0 0 1,-1 1,1 0 0 0 -1,-1 z" id="path3" />
</svg>