<svg xmlns="http://www.w3.org/2000/svg" xmlns:ns1="http://sodipodi.sourceforge.net/DTD/sodipodi-0.dtd" width="24" height="24" viewBox="0 0 24 24" fill="none" version="1.1" id="svg6" ns1:docname="credit-card-pay.svg">
  <path style="baseline-shift:baseline;display:inline;overflow:visible;vector-effect:none;fill:#000000;stroke:none;stroke-linecap:butt;stroke-linejoin:miter;enable-background:accumulate;stop-color:#000000;stop-opacity:1;opacity:1" d="M 6,4 C 3.8027056,4 2,5.8027056 2,8 v 8 c 0,2.197294 1.8027056,4 4,4 h 6 a 1,1 0 0 0 1,-1 1,1 0 0 0 -1,-1 H 6 C 4.8835859,18 4,17.116414 4,16 V 8 C 4,6.8835859 4.8835859,6 6,6 h 12 c 1.116414,0 2,0.8835859 2,2 v 4.5 a 1,1 0 0 0 1,1 1,1 0 0 0 1,-1 V 8 C 22,5.8027056 20.197294,4 18,4 Z" id="path1" />
  <path style="baseline-shift:baseline;display:inline;overflow:visible;vector-effect:none;fill:#000000;stroke:none;stroke-linecap:butt;stroke-linejoin:miter;enable-background:accumulate;stop-color:#000000;stop-opacity:1;opacity:1" d="m 3,9 a 1,1 0 0 0 -1,1 1,1 0 0 0 1,1 h 18 a 1,1 0 0 0 1,-1 1,1 0 0 0 -1,-1 z" id="path2" />
  <path style="baseline-shift:baseline;display:inline;overflow:visible;vector-effect:none;fill:#000000;stroke:none;stroke-linecap:butt;stroke-linejoin:miter;enable-background:accumulate;stop-color:#000000;stop-opacity:1;opacity:1" d="m 16,18 a 1,1 0 0 0 -1,1 1,1 0 0 0 1,1 h 6 a 1,1 0 0 0 1,-1 1,1 0 0 0 -1,-1 z" id="path3" />
  <path style="baseline-shift:baseline;display:inline;overflow:visible;vector-effect:none;fill:#000000;stroke:none;stroke-linecap:butt;stroke-linejoin:miter;enable-background:accumulate;stop-color:#000000;stop-opacity:1;opacity:1" d="m 18.292969,15.292969 a 1,1 0 0 0 0,1.414062 L 20.585937,19 18.292969,21.292969 a 1,1 0 0 0 0,1.414062 1,1 0 0 0 1.414062,0 l 3,-3 a 1.0001,1.0001 0 0 0 0,-1.414062 l -3,-3 a 1,1 0 0 0 -1.414062,0 z" id="path4" />
  <path style="baseline-shift:baseline;display:inline;overflow:visible;vector-effect:none;fill:#000000;stroke:none;stroke-linecap:butt;stroke-linejoin:miter;enable-background:accumulate;stop-color:#000000;stop-opacity:1;opacity:1" d="m 7.0058594,14 a 1,1 0 0 0 -1,1 1,1 0 0 0 1,1 h 0.00391 a 1,1 0 0 0 1,-1 1,1 0 0 0 -1,-1 z" id="path5" />
  <path style="baseline-shift:baseline;display:inline;overflow:visible;vector-effect:none;fill:#000000;stroke:none;stroke-linecap:butt;stroke-linejoin:miter;enable-background:accumulate;stop-color:#000000;stop-opacity:1;opacity:1" d="m 11,14 a 1,1 0 0 0 -1,1 1,1 0 0 0 1,1 h 2 a 1,1 0 0 0 1,-1 1,1 0 0 0 -1,-1 z" id="path6" />
</svg>