<svg xmlns="http://www.w3.org/2000/svg" xmlns:ns1="http://sodipodi.sourceforge.net/DTD/sodipodi-0.dtd" width="24" height="24" viewBox="0 0 24 24" fill="none" version="1.1" id="svg3" ns1:docname="database-leak.svg">
  <path style="baseline-shift:baseline;display:inline;overflow:visible;vector-effect:none;fill:#000000;stroke:none;stroke-linecap:butt;stroke-linejoin:miter;enable-background:accumulate;stop-color:#000000;stop-opacity:1;opacity:1" d="M 12,2 C 9.6896721,2 7.5965143,2.3398183 5.9921875,2.9414063 5.1900241,3.2422002 4.5050111,3.6050888 3.9648438,4.0839844 3.4246764,4.5628799 3,5.2254603 3,6 3,6.7745397 3.4246764,7.4371201 3.9648438,7.9160156 4.5050111,8.3949112 5.1900241,8.7577998 5.9921875,9.0585938 7.5965143,9.6601817 9.6896721,10 12,10 14.310328,10 16.403486,9.6601817 18.007812,9.0585938 18.809976,8.7577998 19.494989,8.3949112 20.035156,7.9160156 20.575324,7.4371201 21,6.7745397 21,6 21,5.2254603 20.575324,4.5628799 20.035156,4.0839844 19.494989,3.6050888 18.809976,3.2422002 18.007812,2.9414063 16.403486,2.3398183 14.310328,2 12,2 Z m 0,2 c 2.107672,0 4.013514,0.330291 5.304687,0.8144531 0.645587,0.2420811 1.132824,0.5266768 1.402344,0.765625 C 18.976551,5.8190263 19,5.9460397 19,6 c 0,0.05396 -0.02345,0.1809737 -0.292969,0.4199219 -0.26952,0.2389482 -0.756757,0.5235439 -1.402344,0.765625 C 16.013514,7.669709 14.107672,8 12,8 9.8923279,8 7.9864857,7.669709 6.6953125,7.1855469 6.0497259,6.9434658 5.5624889,6.6588701 5.2929687,6.4199219 5.0234486,6.1809737 5,6.0539603 5,6 5,5.9460397 5.0234486,5.8190263 5.2929687,5.5800781 5.5624889,5.3411299 6.0497259,5.0565342 6.6953125,4.8144531 7.9864857,4.330291 9.8923279,4 12,4 Z" id="path1" />
  <path style="baseline-shift:baseline;display:inline;overflow:visible;vector-effect:none;fill:#000000;stroke:none;stroke-linecap:butt;stroke-linejoin:miter;enable-background:accumulate;stop-color:#000000;stop-opacity:1;opacity:1" d="M 4,5 A 1,1 0 0 0 3,6 v 12 c 0,0.77454 0.4246764,1.43712 0.9648438,1.916016 0.5401673,0.478895 1.2251803,0.841784 2.0273437,1.142578 C 7.5965143,21.660182 9.6896721,22 12,22 c 2.310328,0 4.403486,-0.339818 6.007812,-0.941406 0.802164,-0.300794 1.487177,-0.663683 2.027344,-1.142578 C 20.575324,19.43712 21,18.77454 21,18 V 6 A 1,1 0 0 0 20,5 1,1 0 0 0 19,6 v 12 c 0,0.05396 -0.02345,0.180974 -0.292969,0.419922 -0.26952,0.238948 -0.756757,0.523544 -1.402344,0.765625 C 16.013514,19.669709 14.107672,20 12,20 9.8923279,20 7.9864857,19.669709 6.6953125,19.185547 6.0497259,18.943466 5.5624889,18.65887 5.2929687,18.419922 5.0234486,18.180974 5,18.05396 5,18 V 6 A 1,1 0 0 0 4,5 Z" id="path2" />
  <path style="baseline-shift:baseline;display:inline;overflow:visible;vector-effect:none;fill:#000000;stroke:none;stroke-linecap:butt;stroke-linejoin:miter;enable-background:accumulate;stop-color:#000000;stop-opacity:1;opacity:1" d="M 8,12.003906 C 6.8891772,11.987973 5.8358331,12.512762 5.1875,13.416016 4.9178437,13.791699 4.4838248,14.009685 4.0214844,14 A 1,1 0 0 0 3,14.978516 1,1 0 0 0 3.9785156,16 C 5.0975988,16.023442 6.1598038,15.493316 6.8125,14.583984 7.0821563,14.208301 7.5161752,13.990315 7.9785156,14 a 1.0001,1.0001 0 0 0 0.042969,0 c 0.4623404,-0.0097 0.8963593,0.208301 1.1660156,0.583984 0.6483331,0.903254 1.701677,1.428043 2.8125,1.41211 1.110823,0.01593 2.164167,-0.508856 2.8125,-1.41211 C 15.082156,14.208301 15.516175,13.990315 15.978516,14 a 1.0001,1.0001 0 0 0 0.04297,0 c 0.462341,-0.0097 0.89636,0.208301 1.166016,0.583984 0.652696,0.909332 1.714901,1.439458 2.833984,1.416016 A 1,1 0 0 0 21,14.978516 1,1 0 0 0 19.978516,14 C 19.516175,14.009685 19.082156,13.791699 18.8125,13.416016 18.164167,12.512762 17.110823,11.987973 16,12.003906 14.889177,11.987973 13.835833,12.512762 13.1875,13.416016 12.917844,13.791699 12.483825,14.009685 12.021484,14 a 1.0001,1.0001 0 0 0 -0.04297,0 C 11.516175,14.009685 11.082156,13.791699 10.8125,13.416016 10.164167,12.512762 9.1108228,11.987973 8,12.003906 Z" id="path3" />
</svg>