<svg xmlns="http://www.w3.org/2000/svg" xmlns:ns1="http://sodipodi.sourceforge.net/DTD/sodipodi-0.dtd" width="24" height="24" viewBox="0 0 24 24" fill="none" version="1.1" id="svg3" ns1:docname="pencil-check.svg">
  <path style="baseline-shift:baseline;display:inline;overflow:visible;vector-effect:none;fill:#000000;stroke:none;stroke-linecap:butt;stroke-linejoin:miter;enable-background:accumulate;stop-color:#000000;stop-opacity:1;opacity:1" d="M 16.683594,3.6269531 C 15.699875,3.5690871 14.636412,3.9495256 13.792969,4.7929687 L 3.2929688,15.292969 A 1.0001,1.0001 0 0 0 3,16 v 4 a 1,1 0 0 0 1,1 h 4 a 1.0001,1.0001 0 0 0 0.7070313,-0.292969 l 10.4999997,-10.5 C 20.050474,9.3635881 20.430913,8.3001255 20.373047,7.3164062 20.315181,6.332687 19.864166,5.4501035 19.207031,4.7929687 18.549896,4.135834 17.667313,3.6848192 16.683594,3.6269531 Z m -0.117188,1.9960938 c 0.432947,0.025467 0.883698,0.2411191 1.226563,0.5839843 0.342865,0.3428653 0.558517,0.7936154 0.583984,1.2265625 0.02547,0.4329472 -0.09409,0.8694854 -0.583984,1.3593751 L 7.5859375,19 H 5 V 16.414062 L 15.207031,6.2070312 c 0.48989,-0.4898896 0.926428,-0.6094519 1.359375,-0.5839843 z" id="path1" />
  <path style="baseline-shift:baseline;display:inline;overflow:visible;vector-effect:none;fill:#000000;stroke:none;stroke-linecap:butt;stroke-linejoin:miter;enable-background:accumulate;stop-color:#000000;stop-opacity:1;opacity:1" d="m 13.5,5.5 a 1,1 0 0 0 -0.707031,0.2929687 1,1 0 0 0 0,1.4140625 l 4,3.9999998 a 1,1 0 0 0 1.414062,0 1,1 0 0 0 0,-1.4140622 l -4,-4.0000001 A 1,1 0 0 0 13.5,5.5 Z" id="path2" />
  <path style="baseline-shift:baseline;display:inline;overflow:visible;vector-effect:none;fill:#000000;stroke:none;stroke-linecap:butt;stroke-linejoin:miter;enable-background:accumulate;stop-color:#000000;stop-opacity:1;opacity:1" d="M 20.292969,16.292969 17,19.585937 15.707031,18.292969 a 1,1 0 0 0 -1.414062,0 1,1 0 0 0 0,1.414062 l 2,2 a 1.0001,1.0001 0 0 0 1.414062,0 l 4,-4 a 1,1 0 0 0 0,-1.414062 1,1 0 0 0 -1.414062,0 z" id="path3" />
</svg>