<svg xmlns="http://www.w3.org/2000/svg" xmlns:ns1="http://sodipodi.sourceforge.net/DTD/sodipodi-0.dtd" width="24" height="24" viewBox="0 0 24 24" fill="none" version="1.1" id="svg11" ns1:docname="server-cog.svg">
  <path style="baseline-shift:baseline;display:inline;overflow:visible;vector-effect:none;fill:#000000;stroke:none;stroke-linecap:butt;stroke-linejoin:miter;enable-background:accumulate;stop-color:#000000;stop-opacity:1;opacity:1" d="M 6,3 C 3.8027056,3 2,4.8027056 2,7 v 2 c 0,2.197294 1.8027056,4 4,4 h 12 c 2.197294,0 4,-1.802706 4,-4 V 7 C 22,4.8027056 20.197294,3 18,3 Z m 0,2 h 12 c 1.116414,0 2,0.8835859 2,2 v 2 c 0,1.116414 -0.883586,2 -2,2 H 6 C 4.8835859,11 4,10.116414 4,9 V 7 C 4,5.8835859 4.8835859,5 6,5 Z" id="path1" />
  <path style="baseline-shift:baseline;display:inline;overflow:visible;vector-effect:none;fill:#000000;stroke:none;stroke-linecap:butt;stroke-linejoin:miter;enable-background:accumulate;stop-color:#000000;stop-opacity:1;opacity:1" d="m 6,11 c -2.1972944,0 -4,1.802706 -4,4 v 2 c 0,2.197294 1.8027056,4 4,4 h 6 a 1,1 0 0 0 1,-1 1,1 0 0 0 -1,-1 H 6 C 4.8835859,19 4,18.116414 4,17 v -2 c 0,-1.116414 0.8835859,-2 2,-2 h 10.5 a 1,1 0 0 0 1,-1 1,1 0 0 0 -1,-1 z" id="path2" />
  <path style="baseline-shift:baseline;display:inline;overflow:visible;vector-effect:none;fill:#000000;stroke:none;stroke-linecap:butt;stroke-linejoin:miter;enable-background:accumulate;stop-color:#000000;stop-opacity:1;opacity:1" d="m 18,15 c -0.722222,0 -1.457881,0.235347 -2.039062,0.751953 C 15.379756,16.268559 15,17.083334 15,18 c 0,0.916666 0.379756,1.731441 0.960938,2.248047 C 16.542119,20.764653 17.277778,21 18,21 18.722222,21 19.457881,20.764653 20.039062,20.248047 20.620244,19.731441 21,18.916666 21,18 21,17.083334 20.620244,16.268559 20.039062,15.751953 19.457881,15.235347 18.722222,15 18,15 Z m 0,2 c 0.277778,0 0.542119,0.09799 0.710937,0.248047 C 18.879756,17.398107 19,17.583334 19,18 19,18.416666 18.879756,18.601893 18.710937,18.751953 18.542119,18.902014 18.277778,19 18,19 17.722222,19 17.457881,18.902014 17.289062,18.751953 17.120244,18.601893 17,18.416666 17,18 17,17.583334 17.120244,17.398107 17.289062,17.248047 17.457881,17.097986 17.722222,17 18,17 Z" id="path3" />
  <path style="baseline-shift:baseline;display:inline;overflow:visible;vector-effect:none;fill:#000000;stroke:none;stroke-linecap:butt;stroke-linejoin:miter;enable-background:accumulate;stop-color:#000000;stop-opacity:1;opacity:1" d="m 18,13.5 a 1,1 0 0 0 -1,1 V 16 a 1,1 0 0 0 1,1 1,1 0 0 0 1,-1 v -1.5 a 1,1 0 0 0 -1,-1 z" id="path4" />
  <path style="baseline-shift:baseline;display:inline;overflow:visible;vector-effect:none;fill:#000000;stroke:none;stroke-linecap:butt;stroke-linejoin:miter;enable-background:accumulate;stop-color:#000000;stop-opacity:1;opacity:1" d="m 18,19 a 1,1 0 0 0 -1,1 v 1.5 a 1,1 0 0 0 1,1 1,1 0 0 0 1,-1 V 20 a 1,1 0 0 0 -1,-1 z" id="path5" />
  <path style="baseline-shift:baseline;display:inline;overflow:visible;vector-effect:none;fill:#000000;stroke:none;stroke-linecap:butt;stroke-linejoin:miter;enable-background:accumulate;stop-color:#000000;stop-opacity:1;opacity:1" d="m 21.291016,15.283203 a 1,1 0 0 0 -0.759766,0.101563 l -1.298828,0.75 A 1,1 0 0 0 18.867187,17.5 a 1,1 0 0 0 1.365235,0.365234 l 1.298828,-0.75 A 1,1 0 0 0 21.898437,15.75 1,1 0 0 0 21.291016,15.283203 Z" id="path6" />
  <path style="baseline-shift:baseline;display:inline;overflow:visible;vector-effect:none;fill:#000000;stroke:none;stroke-linecap:butt;stroke-linejoin:miter;enable-background:accumulate;stop-color:#000000;stop-opacity:1;opacity:1" d="m 15.769531,18.134766 -1.298828,0.75 A 1,1 0 0 0 14.103516,20.25 1,1 0 0 0 15.46875,20.615234 l 1.300781,-0.75 A 1,1 0 0 0 17.136719,18.5 1,1 0 0 0 15.769531,18.134766 Z" id="path7" />
  <path style="baseline-shift:baseline;display:inline;overflow:visible;vector-effect:none;fill:#000000;stroke:none;stroke-linecap:butt;stroke-linejoin:miter;enable-background:accumulate;stop-color:#000000;stop-opacity:1;opacity:1" d="M 15.46875,15.384766 A 1,1 0 0 0 14.103516,15.75 a 1,1 0 0 0 0.367187,1.365234 l 1.298828,0.75 A 1,1 0 0 0 17.136719,17.5 1,1 0 0 0 16.769531,16.134766 Z" id="path8" />
  <path style="baseline-shift:baseline;display:inline;overflow:visible;vector-effect:none;fill:#000000;stroke:none;stroke-linecap:butt;stroke-linejoin:miter;enable-background:accumulate;stop-color:#000000;stop-opacity:1;opacity:1" d="M 19.474609,18.033203 A 1,1 0 0 0 18.867187,18.5 a 1,1 0 0 0 0.365235,1.365234 l 1.300781,0.75 A 1,1 0 0 0 21.898437,20.25 1,1 0 0 0 21.533203,18.884766 l -1.300781,-0.75 a 1,1 0 0 0 -0.757813,-0.101563 z" id="path9" />
  <path style="baseline-shift:baseline;display:inline;overflow:visible;vector-effect:none;fill:#000000;stroke:none;stroke-linecap:butt;stroke-linejoin:miter;enable-background:accumulate;stop-color:#000000;stop-opacity:1;opacity:1" d="M 7,7 A 1,1 0 0 0 6,8 v 0.00977 a 1,1 0 0 0 1,1 1,1 0 0 0 1,-1 V 8 A 1,1 0 0 0 7,7 Z" id="path10" />
  <path style="baseline-shift:baseline;display:inline;overflow:visible;vector-effect:none;fill:#000000;stroke:none;stroke-linecap:butt;stroke-linejoin:miter;enable-background:accumulate;stop-color:#000000;stop-opacity:1;opacity:1" d="m 7,15 a 1,1 0 0 0 -1,1 v 0.0098 a 1,1 0 0 0 1,1 1,1 0 0 0 1,-1 V 16 A 1,1 0 0 0 7,15 Z" id="path11" />
</svg>