<svg xmlns="http://www.w3.org/2000/svg" xmlns:ns1="http://sodipodi.sourceforge.net/DTD/sodipodi-0.dtd" width="24" height="24" viewBox="0 0 24 24" fill="none" version="1.1" id="svg4" ns1:docname="traffic-cone.svg">
  <path style="baseline-shift:baseline;display:inline;overflow:visible;vector-effect:none;fill:#000000;stroke:none;stroke-linecap:butt;stroke-linejoin:miter;enable-background:accumulate;stop-color:#000000;stop-opacity:1;opacity:1" d="m 4,19 a 1,1 0 0 0 -1,1 1,1 0 0 0 1,1 h 16 a 1,1 0 0 0 1,-1 1,1 0 0 0 -1,-1 z" id="path1" />
  <path style="baseline-shift:baseline;display:inline;overflow:visible;vector-effect:none;fill:#000000;stroke:none;stroke-linecap:butt;stroke-linejoin:miter;enable-background:accumulate;stop-color:#000000;stop-opacity:1;opacity:1" d="m 9.4003906,9 a 1,1 0 0 0 -1,1 1,1 0 0 0 1,1 h 5.1992184 a 1,1 0 0 0 1,-1 1,1 0 0 0 -1,-1 z" id="path2" />
  <path style="baseline-shift:baseline;display:inline;overflow:visible;vector-effect:none;fill:#000000;stroke:none;stroke-linecap:butt;stroke-linejoin:miter;enable-background:accumulate;stop-color:#000000;stop-opacity:1;opacity:1" d="m 7.8007812,14 a 1,1 0 0 0 -1,1 1,1 0 0 0 1,1 h 8.3984378 a 1,1 0 0 0 1,-1 1,1 0 0 0 -1,-1 z" id="path3" />
  <path style="baseline-shift:baseline;display:inline;overflow:visible;vector-effect:none;fill:#000000;stroke:none;stroke-linecap:butt;stroke-linejoin:miter;enable-background:accumulate;stop-color:#000000;stop-opacity:1;opacity:1" d="M 11,4 A 1.0001,1.0001 0 0 0 10.050781,4.6835937 L 5.0507812,19.683594 a 1,1 0 0 0 0.6328125,1.265625 1,1 0 0 0 1.265625,-0.632813 L 11.720703,6 h 0.558594 l 4.771484,14.316406 a 1,1 0 0 0 1.265625,0.632813 1,1 0 0 0 0.632813,-1.265625 l -5,-15.0000003 A 1.0001,1.0001 0 0 0 13,4 Z" id="path4" />
</svg>