<svg xmlns="http://www.w3.org/2000/svg" xmlns:ns1="http://sodipodi.sourceforge.net/DTD/sodipodi-0.dtd" width="24" height="24" viewBox="0 0 24 24" fill="none" version="1.1" id="svg6" ns1:docname="viewport-tall.svg">
  <path style="baseline-shift:baseline;display:inline;overflow:visible;vector-effect:none;fill:#000000;stroke:none;stroke-linecap:butt;stroke-linejoin:miter;enable-background:accumulate;stop-color:#000000;stop-opacity:1;opacity:1" d="M 11.617188,2.0761719 A 1.0001,1.0001 0 0 0 11,3 v 7 a 1,1 0 0 0 1,1 1,1 0 0 0 1,-1 V 5.4140625 l 1.292969,1.2929687 a 1,1 0 0 0 1.414062,0 1,1 0 0 0 0,-1.4140625 l -3,-2.9999999 A 1.0001,1.0001 0 0 0 11.617188,2.0761719 Z" id="path1" />
  <path style="baseline-shift:baseline;display:inline;overflow:visible;vector-effect:none;fill:#000000;stroke:none;stroke-linecap:butt;stroke-linejoin:miter;enable-background:accumulate;stop-color:#000000;stop-opacity:1;opacity:1" d="M 12,2 A 1,1 0 0 0 11.292969,2.2929688 L 8.2929688,5.2929687 a 1,1 0 0 0 0,1.4140625 1,1 0 0 0 1.4140625,0 L 12.707031,3.7070313 a 1,1 0 0 0 0,-1.4140625 A 1,1 0 0 0 12,2 Z" id="path2" />
  <path style="baseline-shift:baseline;display:inline;overflow:visible;vector-effect:none;fill:#000000;stroke:none;stroke-linecap:butt;stroke-linejoin:miter;enable-background:accumulate;stop-color:#000000;stop-opacity:1;opacity:1" d="m 12,13 a 1,1 0 0 0 -1,1 v 7 a 1.0001,1.0001 0 0 0 1.707031,0.707031 l 3,-3 a 1,1 0 0 0 0,-1.414062 1,1 0 0 0 -1.414062,0 L 13,18.585937 V 14 a 1,1 0 0 0 -1,-1 z" id="path3" />
  <path style="baseline-shift:baseline;display:inline;overflow:visible;vector-effect:none;fill:#000000;stroke:none;stroke-linecap:butt;stroke-linejoin:miter;enable-background:accumulate;stop-color:#000000;stop-opacity:1;opacity:1" d="m 9,17 a 1,1 0 0 0 -0.7070312,0.292969 1,1 0 0 0 0,1.414062 l 3.0000002,3 a 1,1 0 0 0 1.414062,0 1,1 0 0 0 0,-1.414062 l -2.9999997,-3 A 1,1 0 0 0 9,17 Z" id="path4" />
  <path style="baseline-shift:baseline;display:inline;overflow:visible;vector-effect:none;fill:#000000;stroke:none;stroke-linecap:butt;stroke-linejoin:miter;enable-background:accumulate;stop-color:#000000;stop-opacity:1;opacity:1" d="m 18,2 a 1,1 0 0 0 -1,1 1,1 0 0 0 1,1 h 1 c 0.564129,0 1,0.4358706 1,1 v 14 c 0,0.564129 -0.435871,1 -1,1 h -1 a 1,1 0 0 0 -1,1 1,1 0 0 0 1,1 h 1 c 1.64501,0 3,-1.35499 3,-3 V 5 C 22,3.3549904 20.64501,2 19,2 Z" id="path5" />
  <path style="baseline-shift:baseline;display:inline;overflow:visible;vector-effect:none;fill:#000000;stroke:none;stroke-linecap:butt;stroke-linejoin:miter;enable-background:accumulate;stop-color:#000000;stop-opacity:1;opacity:1" d="M 5,2 C 3.3549904,2 2,3.3549904 2,5 v 14 c 0,1.64501 1.3549904,3 3,3 H 6 A 1,1 0 0 0 7,21 1,1 0 0 0 6,20 H 5 C 4.4358706,20 4,19.564129 4,19 V 5 C 4,4.4358706 4.4358706,4 5,4 H 6 A 1,1 0 0 0 7,3 1,1 0 0 0 6,2 Z" id="path6" />
</svg>