<svg xmlns="http://www.w3.org/2000/svg" xmlns:ns1="http://sodipodi.sourceforge.net/DTD/sodipodi-0.dtd" width="24" height="24" viewBox="0 0 24 24" fill="none" version="1.1" id="svg9" ns1:docname="wall-off.svg">
  <path style="baseline-shift:baseline;display:inline;overflow:visible;vector-effect:none;fill:#000000;stroke:none;stroke-linecap:butt;stroke-linejoin:miter;enable-background:accumulate;stop-color:#000000;stop-opacity:1;opacity:1" d="M 8,3 A 1,1 0 0 0 7,4 1,1 0 0 0 8,5 h 10 c 0.564129,0 1,0.4358706 1,1 v 10 a 1,1 0 0 0 1,1 1,1 0 0 0 1,-1 V 6 C 21,4.3549904 19.64501,3 18,3 Z M 4.5742187,3.5917969 A 1,1 0 0 0 3.8691406,3.8886719 C 3.3346995,4.4290844 3,5.1809091 3,6 v 12 c 0,1.64501 1.3549904,3 3,3 h 12 c 0.820812,0 1.576139,-0.33545 2.117187,-0.875 a 1,1 0 0 0 0.002,-1.414063 1,1 0 0 0 -1.414063,-0.002 C 18.524127,18.889435 18.281188,19 18,19 H 6 C 5.4358706,19 5,18.564129 5,18 V 6 C 5,5.7190909 5.1094568,5.4785093 5.2910156,5.2949219 A 1,1 0 0 0 5.2832031,3.8808594 1,1 0 0 0 4.5742187,3.5917969 Z" id="path1" />
  <path style="baseline-shift:baseline;display:inline;overflow:visible;vector-effect:none;fill:#000000;stroke:none;stroke-linecap:butt;stroke-linejoin:miter;enable-background:accumulate;stop-color:#000000;stop-opacity:1;opacity:1" d="M 4,7 A 1,1 0 0 0 3,8 1,1 0 0 0 4,9 H 8 A 1,1 0 0 0 9,8 1,1 0 0 0 8,7 Z m 8,0 a 1,1 0 0 0 -1,1 1,1 0 0 0 1,1 h 8 A 1,1 0 0 0 21,8 1,1 0 0 0 20,7 Z" id="path2" />
  <path style="baseline-shift:baseline;display:inline;overflow:visible;vector-effect:none;fill:#000000;stroke:none;stroke-linecap:butt;stroke-linejoin:miter;enable-background:accumulate;stop-color:#000000;stop-opacity:1;opacity:1" d="m 4,11 a 1,1 0 0 0 -1,1 1,1 0 0 0 1,1 h 8 a 1,1 0 0 0 1,-1 1,1 0 0 0 -1,-1 z m 12,0 a 1,1 0 0 0 -1,1 1,1 0 0 0 1,1 h 4 a 1,1 0 0 0 1,-1 1,1 0 0 0 -1,-1 z" id="path3" />
  <path style="baseline-shift:baseline;display:inline;overflow:visible;vector-effect:none;fill:#000000;stroke:none;stroke-linecap:butt;stroke-linejoin:miter;enable-background:accumulate;stop-color:#000000;stop-opacity:1;opacity:1" d="m 4,15 a 1,1 0 0 0 -1,1 1,1 0 0 0 1,1 h 12 a 1,1 0 0 0 1,-1 1,1 0 0 0 -1,-1 z" id="path4" />
  <path style="baseline-shift:baseline;display:inline;overflow:visible;vector-effect:none;fill:#000000;stroke:none;stroke-linecap:butt;stroke-linejoin:miter;enable-background:accumulate;stop-color:#000000;stop-opacity:1;opacity:1" d="M 9,3 A 1,1 0 0 0 8,4 V 5 A 1,1 0 0 0 9,6 1,1 0 0 0 10,5 V 4 A 1,1 0 0 0 9,3 Z" id="path5" />
  <path style="baseline-shift:baseline;display:inline;overflow:visible;vector-effect:none;fill:#000000;stroke:none;stroke-linecap:butt;stroke-linejoin:miter;enable-background:accumulate;stop-color:#000000;stop-opacity:1;opacity:1" d="m 14,7 a 1,1 0 0 0 -1,1 v 2 a 1,1 0 0 0 1,1 1,1 0 0 0 1,-1 V 8 A 1,1 0 0 0 14,7 Z" id="path6" />
  <path style="baseline-shift:baseline;display:inline;overflow:visible;vector-effect:none;fill:#000000;stroke:none;stroke-linecap:butt;stroke-linejoin:miter;enable-background:accumulate;stop-color:#000000;stop-opacity:1;opacity:1" d="m 8,11 a 1,1 0 0 0 -1,1 v 4 a 1,1 0 0 0 1,1 1,1 0 0 0 1,-1 V 12 A 1,1 0 0 0 8,11 Z" id="path7" />
  <path style="baseline-shift:baseline;display:inline;overflow:visible;vector-effect:none;fill:#000000;stroke:none;stroke-linecap:butt;stroke-linejoin:miter;enable-background:accumulate;stop-color:#000000;stop-opacity:1;opacity:1" d="m 11,15 a 1,1 0 0 0 -1,1 v 4 a 1,1 0 0 0 1,1 1,1 0 0 0 1,-1 v -4 a 1,1 0 0 0 -1,-1 z" id="path8" />
  <path style="baseline-shift:baseline;display:inline;overflow:visible;vector-effect:none;fill:#000000;stroke:none;stroke-linecap:butt;stroke-linejoin:miter;enable-background:accumulate;stop-color:#000000;stop-opacity:1;opacity:1" d="m 2.2929688,2.2929688 a 1,1 0 0 0 0,1.4140625 L 20.292969,21.707031 a 1,1 0 0 0 1.414062,0 1,1 0 0 0 0,-1.414062 L 3.7070313,2.2929688 a 1,1 0 0 0 -1.4140625,0 z" id="path9" />
</svg>